<?xml version="1.0" encoding="UTF-8"?> <svg xmlns="http://www.w3.org/2000/svg" width="76" height="83" viewBox="0 0 76 83" fill="none"><path d="M74.4291 37.8861L41.3709 2.46078C39.4673 0.420091 36.3804 0.419584 34.4762 2.45965C34.4759 2.46003 34.4755 2.4604 34.4752 2.46078L27.6107 9.81804L36.3187 19.1494C38.4068 18.3884 40.717 18.9652 42.2763 20.6369C43.8443 22.3194 44.3785 24.8135 43.6522 27.0604L52.0433 36.0544C54.0737 35.3049 56.4168 35.7901 58.0379 37.5304C60.3036 39.957 60.3047 43.8925 58.0404 46.3206C58.0396 46.3215 58.0387 46.3224 58.0379 46.3233C55.7731 48.7527 52.0995 48.7545 49.8326 46.3274C48.1746 44.5522 47.6759 41.8824 48.5687 39.5601L40.7427 31.1731L40.742 53.2449C41.3093 53.5456 41.8275 53.9427 42.2763 54.4208C44.5424 56.8488 44.5429 60.7857 42.2773 63.2143C42.277 63.2146 42.2766 63.2149 42.2763 63.2153C40.0092 65.6449 36.335 65.6449 34.0715 63.2153C31.8048 60.7879 31.8035 56.851 34.0685 54.4219C34.6122 53.8387 35.2588 53.3773 35.9704 53.0644V30.787C35.2589 30.4756 34.6131 30.0141 34.0715 29.4298C32.3545 27.592 31.9416 24.892 32.8214 22.6323L24.2378 13.4319L1.57123 37.7216C-0.333569 39.7628 -0.333649 43.0723 1.57105 45.1137C1.57111 45.1137 1.57117 45.1138 1.57123 45.1139L34.6294 80.5399C36.5337 82.5802 39.6208 82.5802 41.5251 80.5399L74.4291 45.2791C76.3333 43.2372 76.3333 39.928 74.4291 37.8861Z" fill="black"></path></svg> 