<?xml version="1.0" encoding="UTF-8"?> <svg xmlns="http://www.w3.org/2000/svg" width="84" height="89" viewBox="0 0 84 89" fill="none"><path d="M4.96338 0L11.7044 80.1L41.9549 89L72.2841 80.0889L79.0356 0H4.96863H4.96338ZM66.5039 74.9936L42.1229 82.1526V82.1915L42.0599 82.1693L41.9969 82.1915V82.1526L17.6159 74.9936L11.8514 6.55262H72.2684L66.5039 74.9936ZM53.3789 46.0798L52.3079 58.8179L41.9549 61.7771L31.6281 58.829L30.9666 50.9859H21.6584L22.9551 66.4162L41.9916 71.9954L60.9704 66.4162L63.5166 36.2564H29.7224L28.8771 26.1938H64.3566L65.1861 16.3704H18.7394L21.2436 46.0798H53.3789Z" fill="black"></path></svg> 