<?xml version="1.0" encoding="UTF-8"?> <svg xmlns="http://www.w3.org/2000/svg" width="99" height="105" viewBox="0 0 99 105" fill="none"><g clip-path="url(#clip0)"><path d="M49.493 105C48.1689 105 46.8489 104.632 45.6898 103.919L33.5788 96.3199C31.772 95.248 32.6548 94.8674 33.2488 94.6443C35.6619 93.7562 36.1487 93.5505 38.7268 92.0018C38.9949 91.8399 39.3497 91.9012 39.626 92.0762L48.932 97.9343C49.1048 98.0316 49.2974 98.0825 49.493 98.0825C49.6886 98.0825 49.8813 98.0316 50.054 97.9343L86.3334 75.7268C86.5025 75.6187 86.6423 75.4659 86.7392 75.2834C86.8361 75.101 86.8867 74.895 86.8862 74.6855V30.2793C86.8858 30.0661 86.8337 29.8567 86.7347 29.6712C86.6357 29.4857 86.4932 29.3305 86.321 29.2205L50.0582 7.03053C49.8873 6.92938 49.6949 6.87628 49.4992 6.87628C49.3035 6.87628 49.1111 6.92938 48.9403 7.03053L12.6857 29.2249C12.5128 29.3337 12.3693 29.4879 12.2689 29.6725C12.1685 29.8572 12.1145 30.0661 12.1123 30.2793V74.6855C12.1131 74.8955 12.1666 75.1014 12.2674 75.2821C12.3682 75.4628 12.5126 75.6118 12.6857 75.7137L22.6228 81.8037C28.0142 84.6649 31.3183 81.2962 31.3183 77.9099V34.068C31.3183 33.4468 31.7885 32.9612 32.3743 32.9612H36.9737C37.547 32.9612 38.0255 33.4512 38.0255 34.068V77.9099C38.0255 85.5443 34.1068 89.9193 27.284 89.9193C25.1885 89.9193 23.5344 89.9193 18.9268 87.5087L9.40628 81.703C8.24905 80.9883 7.28882 79.9641 6.62146 78.7327C5.95409 77.5013 5.60293 76.1058 5.60303 74.6855V30.2793C5.60303 27.3962 7.05915 24.7012 9.40628 23.2662L45.6857 1.03241C46.8543 0.354231 48.165 -0.0012207 49.4972 -0.0012207C50.8293 -0.0012207 52.14 0.354231 53.3087 1.03241L89.5839 23.2662C91.9352 24.7055 93.3954 27.3962 93.3954 30.2793V74.6855C93.393 76.1063 93.0399 77.5017 92.3712 78.7329C91.7025 79.964 90.7415 80.988 89.5839 81.703L53.3087 103.919C52.1537 104.632 50.8378 105 49.493 105ZM78.7847 61.2193C78.7847 52.9068 73.4882 50.693 62.3383 49.1312C51.0729 47.5518 49.9262 46.7337 49.9262 43.938C49.9262 41.628 50.8955 38.5437 59.2404 38.5437C66.6943 38.5437 69.4415 40.2455 70.5718 45.5743C70.6233 45.8205 70.7522 46.0408 70.9373 46.199C71.1225 46.3572 71.3529 46.4439 71.5907 46.4449H76.2973C76.441 46.4434 76.583 46.4112 76.7148 46.3504C76.8466 46.2895 76.9656 46.2011 77.0645 46.0905C77.1642 45.9758 77.2402 45.8403 77.2878 45.6926C77.3354 45.545 77.3535 45.3885 77.3409 45.233C76.6108 36.0543 70.8605 31.7755 59.2404 31.7755C48.8949 31.7755 42.7239 36.4043 42.7239 44.1699C42.7239 52.5918 48.8619 54.9193 58.7908 55.9605C70.6708 57.1943 71.5907 59.0362 71.5907 61.5124C71.5907 65.813 68.336 67.6462 60.6924 67.6462C51.0935 67.6462 48.9815 65.0912 48.272 60.0249C48.2326 59.7618 48.1057 59.5223 47.9143 59.3498C47.7229 59.1773 47.4796 59.0831 47.2284 59.0843H42.5383C42.4007 59.0831 42.2643 59.1109 42.137 59.1661C42.0096 59.2213 41.8939 59.3027 41.7964 59.4056C41.699 59.5086 41.6218 59.631 41.5692 59.7659C41.5167 59.9007 41.49 60.0453 41.4905 60.1912C41.4905 66.6749 44.8153 74.4012 60.6924 74.4012C72.1929 74.4055 78.7847 69.6062 78.7847 61.2193Z" fill="#121D23"></path></g><defs><clipPath id="clip0"><rect width="99" height="105" fill="white"></rect></clipPath></defs></svg> 