<svg width="96" height="45" viewBox="0 0 96 45" fill="none" xmlns="http://www.w3.org/2000/svg"><g clip-path="url(#clip0)"><path d="M6.556 15.053V3.142c0-.249.133-.478.35-.603L11.154.095a.704.704 0 011.057.603v16.65a.704.704 0 01-1.04.612l-4.249-2.295a.696.696 0 01-.366-.612zM14.12.095a.704.704 0 00-1.058.603v16.946c0 .543.6.877 1.068.596l4.25-2.541a.696.696 0 00.34-.597V3.142a.696.696 0 00-.351-.603L14.119.095zM1.504 18.855a.694.694 0 00.02 1.212l37.709 20.391a.704.704 0 001.041-.607l.032-4.778a.696.696 0 00-.367-.616L6.441 16.366a.71.71 0 00-.695.011l-4.242 2.478zm13.387-.084a.694.694 0 00.027 1.209l4.145 2.239a.71.71 0 00.696-.013L37 12.084a.693.693 0 00-.019-1.21l-4.288-2.343a.71.71 0 00-.704.013L14.89 18.771zm6.457 3.483a.694.694 0 00.022 1.211l4.258 2.3a.71.71 0 00.692-.01l11.915-6.89a.695.695 0 00.348-.612l-.067-4.865a.704.704 0 00-1.063-.59l-16.105 9.456zM0 26.326c0 .256.141.49.369.613l33.524 17.977a.71.71 0 00.7-.017l4.205-2.524a.693.693 0 00-.027-1.208L1.04 20.765a.704.704 0 00-1.04.611v4.95zm6.556 14.352a.7.7 0 00.34.597l4.249 2.53a.704.704 0 001.066-.598v-8.539a.696.696 0 00-.368-.613l-4.248-2.277a.704.704 0 00-1.04.612v8.288zM14.1 35.26a.704.704 0 00-1.039.612v7.334c0 .542.598.877 1.067.597l4.249-2.53a.696.696 0 00.341-.596v-2.526a.696.696 0 00-.369-.613L14.1 35.26zm35.19-10.039v-4.738c0-.44-.095-.878-.646-.878-.552 0-.645.44-.645.878v8.052c0 .44.093.879.645.879.55 0 .645-.44.645-.88v-1.623l.538-.48 3.238 2.677c.188.146.35.306.605.306a.645.645 0 00.646-.652c0-.334-.216-.48-.457-.68L50.82 25.58l2.501-2.05c.228-.186.43-.332.43-.639a.645.645 0 00-.645-.652c-.309 0-.631.32-.86.52l-2.957 2.463zm15.448-2.102c0-.44-.095-.88-.646-.88-.55 0-.645.44-.645.88v3.714l-1.895 1.185a.733.733 0 01-.403.12h-.431c-.31 0-.645-.081-.753-.267-.107-.187-.12-.532-.134-.825l-.134-3.926c-.014-.413-.08-.88-.632-.88-.592 0-.659.493-.646.96l.135 4.02c.027.691.013 1.237.592 1.729.43.359.833.466 1.196.466h.954c.35 0 .7-.16 1.116-.426l1.048-.68v.213c0 .439.095.892.646.892.685 0 .632-.652.632-.945v-5.35zm6.698 3.886v-3.488H73.6c.376 0 .888-.079.888-.639 0-.545-.458-.638-.888-.638h-2.164v-1.305c0-.44-.095-.879-.646-.879-.55 0-.645.44-.645.88v1.304h-.417c-.43 0-.887.093-.887.638 0 .56.51.64.887.64h.417v3.474c0 .691-.027 1.238.47 1.783.457.492 1.022.639 1.667.639h.659c.685 0 1.304-.094 1.775-.652.214-.254.442-.707.442-1.066a.644.644 0 00-.658-.639c-.323 0-.566.213-.646.52-.134.518-.376.559-.9.559h-.66c-.886 0-.86-.413-.86-1.131h.002zm11.657 1.13v-5.003c0-.76-.215-.892-.954-.892H80.78c-.43 0-.888.093-.888.639 0 .56.512.638.888.638h1.022v4.619H80.78c-.43 0-.888.094-.888.639 0 .558.512.639.888.639h3.28c.377 0 .888-.08.888-.64 0-.544-.457-.638-.888-.638h-.968.001zm-1.951-7.866c0 .453.256.6.605.6h.739c.35 0 .605-.147.605-.6v-.611c0-.453-.255-.6-.605-.6h-.739c-.35 0-.605.147-.605.6v.61zm10.703 3.248h1.598c.927 0 1.142.16 1.142 1.118v.293h-2.769c-.564 0-1.061.093-1.505.48-.484.426-.632.811-.632 1.424v.56c0 .665.134 1.13.672 1.57.47.387.888.453 1.465.453h1.237c.418 0 .43 0 .793-.186l.888-.453c-.013.36.323.639.66.639.43 0 .618-.374.604-.746l-.133-4.339c-.013-.639-.081-1.025-.579-1.518-.51-.505-.994-.572-1.666-.572h-1.775c-.43 0-.888.093-.888.639 0 .56.512.638.888.638zm-.012 2.69h1.907c.713 0 .914.213.914.918v.278l-1.424.733h-1.424c-.309 0-.833-.094-.833-.52v-.852c0-.465.51-.558.86-.558z" fill="#30EFA6"/></g><defs><clipPath id="clip0"><path fill="#fff" d="M0 0h96v45H0z"/></clipPath></defs></svg>