<?xml version="1.0" encoding="UTF-8"?> <svg xmlns="http://www.w3.org/2000/svg" width="93" height="89" viewBox="0 0 93 89" fill="none"><g clip-path="url(#clip0)"><path d="M52.3738 50.7336C55.6173 47.2444 55.6173 41.5872 52.3738 38.098C49.1302 34.6087 43.8714 34.6087 40.6279 38.098C37.3843 41.5872 37.3843 47.2444 40.6279 50.7336C43.8714 54.2228 49.1302 54.2228 52.3738 50.7336Z" fill="black"></path><path d="M46.5012 26.2507C57.6505 26.2507 68.0093 27.9721 75.8182 30.8628C85.2274 34.347 91.0134 39.6294 91.0134 44.4127C91.0134 49.3969 84.8815 55.0099 74.778 58.6092C67.1392 61.3316 57.0851 62.7548 46.5012 62.7548C35.6484 62.7548 25.3746 61.4202 17.6481 58.5797C7.87389 54.9863 1.98633 49.3024 1.98633 44.4127C1.98633 39.6677 7.51158 34.4267 16.7889 30.9485C24.628 28.0105 35.2421 26.2507 46.5012 26.2507H46.5012V26.2507Z" stroke="black" stroke-width="4" stroke-miterlimit="10"></path><path d="M31.8032 35.3864C37.3723 24.9959 43.9351 16.2028 50.1658 10.3712C57.6728 3.34381 64.8174 0.591907 68.6684 2.98063C72.6812 5.46975 74.1387 13.9882 71.9895 25.2055C70.3646 33.6856 66.489 43.7631 61.1998 53.6281C55.7789 63.741 49.5702 72.6493 43.4246 78.4306C35.6486 85.7444 28.1279 88.39 24.1919 85.9482C20.3711 83.5772 18.9109 75.8116 20.7417 65.427C22.2897 56.6457 26.1764 45.8773 31.8032 35.3864V35.3864V35.3864Z" stroke="black" stroke-width="4" stroke-miterlimit="10"></path><path d="M31.817 53.6488C26.2314 43.2672 22.4271 32.7615 20.8406 24.0422C18.9302 13.5366 20.2807 5.50233 24.1289 3.1077C28.139 0.609729 35.7256 3.50631 43.6854 11.1095C49.7047 16.8584 55.8832 25.5038 61.1862 35.3599C66.6236 45.464 70.6996 55.698 72.2833 64.311C74.2898 75.2123 72.6649 83.5418 68.7316 85.9896C64.9136 88.3665 57.9309 85.8508 50.4815 78.9563C44.1905 73.1307 37.4575 64.1309 31.817 53.6488L31.817 53.6488Z" stroke="black" stroke-width="4" stroke-miterlimit="10"></path></g><defs><clipPath id="clip0"><rect width="93" height="89" fill="white"></rect></clipPath></defs></svg> 