<?xml version="1.0" encoding="UTF-8"?> <svg xmlns="http://www.w3.org/2000/svg" width="85" height="91" viewBox="0 0 85 91" fill="none"><path d="M76.0352 25.8753C79.104 31.8938 80.7073 38.6431 80.6969 45.5C80.6969 60.5918 73.0734 73.7754 61.7153 80.8535L73.3789 44.7293C75.565 38.894 76.2848 34.2274 76.2848 30.0812C76.2848 28.5399 76.1892 27.118 76.0352 25.8753ZM47.77 26.2762C50.0677 26.1568 52.1289 25.8753 52.1289 25.8753C54.1902 25.5938 53.9564 22.349 51.8925 22.4685C51.8925 22.4685 45.6795 22.9718 41.6952 22.9718C37.9312 22.9718 31.5961 22.4088 31.5961 22.4088C29.5348 22.2893 29.2586 25.6535 31.3331 25.7701C31.3331 25.7701 33.243 25.9919 35.3175 26.1113L41.2675 43.5577L32.8711 70.4112L18.9683 26.154C21.2659 26.0516 23.3405 25.7843 23.3405 25.7843C25.4017 25.5028 25.168 22.258 23.1041 22.3775C23.1041 22.3775 16.9203 22.9092 12.9227 22.9092C12.2161 22.9092 11.3741 22.8808 10.4869 22.8495C17.3905 11.9324 29.163 4.60119 42.5 4.60119C52.4477 4.60119 61.4948 8.65922 68.3028 15.3392C68.1355 15.3392 67.9841 15.3107 67.8034 15.3107C64.0555 15.3107 61.3833 18.8057 61.3833 22.568C61.3833 25.9464 63.2108 28.8043 65.1472 32.1657C66.6002 34.89 68.2869 38.402 68.2869 43.4525C68.2869 46.919 67.0411 51.0055 65.3809 56.6503L61.5772 70.2321L47.77 26.2137V26.2762ZM42.5 86.3931C38.752 86.3931 35.1263 85.8158 31.7077 84.7352L43.1641 49.0689L54.91 83.5209C54.9923 83.7285 55.0906 83.9048 55.1862 84.084C51.1105 85.6189 46.8206 86.4007 42.5 86.396V86.3931ZM4.28984 45.5C4.28984 39.5765 5.47984 33.9316 7.59687 28.8527L25.8161 82.3209C13.0873 75.6864 4.28984 61.6895 4.28984 45.5ZM42.5 0C19.0772 0 0 20.4238 0 45.5C0 70.5762 19.0772 91 42.5 91C65.9228 91 85 70.5762 85 45.5C85 20.4238 65.9228 0 42.5 0Z" fill="black"></path></svg> 